<?xml version="1.0" encoding="UTF-8" standalone="no"?>
<!DOCTYPE svg PUBLIC "-//W3C//DTD SVG 1.1//EN"
 "http://www.w3.org/Graphics/SVG/1.1/DTD/svg11.dtd">
<!-- Generated by graphviz version 2.43.0 (0)
 -->
<!-- Title: conversions Pages: 1 -->
<svg width="640pt" height="368pt"
 viewBox="0.00 0.00 640.37 368.00" xmlns="http://www.w3.org/2000/svg" xmlns:xlink="http://www.w3.org/1999/xlink">
<g id="graph0" class="graph" transform="scale(1 1) rotate(0) translate(4 364)">
<title>conversions</title>
<!-- p -->
<g id="node1" class="node">
<title>p</title>
<polygon fill="none" stroke="black" points="495.28,-198 410.28,-198 410.28,-162 495.28,-162 495.28,-198"/>
<text text-anchor="middle" x="452.78" y="-176.3" font-family="Times,serif" font-size="14.00">Pandoc AST</text>
</g>
<!-- DOCX -->
<g id="node5" class="node">
<title>DOCX</title>
<ellipse fill="none" stroke="black" cx="582.32" cy="-342" rx="36" ry="18"/>
<text text-anchor="middle" x="582.32" y="-338.3" font-family="Times,serif" font-size="14.00">DOCX</text>
</g>
<!-- p&#45;&gt;DOCX -->
<g id="edge5" class="edge">
<title>p&#45;&gt;DOCX</title>
<path fill="none" stroke="black" d="M460.63,-198.21C471.92,-226.24 496.79,-280.33 532.28,-315 536.23,-318.86 540.85,-322.34 545.64,-325.42"/>
<polygon fill="black" stroke="black" points="543.95,-328.48 554.35,-330.51 547.49,-322.44 543.95,-328.48"/>
<text text-anchor="middle" x="450.81" y="-260.31" font-family="Times,serif" font-size="13.00">Pandoc writers &#160;&#160;&#160;</text>
<text text-anchor="middle" x="450.81" y="-246.31" font-family="Times,serif" font-size="13.00"> + Lua &#160;&#160;&#160;</text>
</g>
<!-- ODT -->
<g id="node6" class="node">
<title>ODT</title>
<ellipse fill="none" stroke="black" cx="582.32" cy="-288" rx="28.7" ry="18"/>
<text text-anchor="middle" x="582.32" y="-284.3" font-family="Times,serif" font-size="14.00">ODT</text>
</g>
<!-- p&#45;&gt;ODT -->
<g id="edge6" class="edge">
<title>p&#45;&gt;ODT</title>
<path fill="none" stroke="black" d="M468.67,-198.27C483.55,-215.77 507.69,-242.22 532.28,-261 537.78,-265.2 544.02,-269.15 550.15,-272.67"/>
<polygon fill="black" stroke="black" points="548.52,-275.77 558.97,-277.49 551.88,-269.63 548.52,-275.77"/>
</g>
<!-- HTML -->
<g id="node7" class="node">
<title>HTML</title>
<ellipse fill="none" stroke="black" cx="582.32" cy="-234" rx="36.29" ry="18"/>
<text text-anchor="middle" x="582.32" y="-230.3" font-family="Times,serif" font-size="14.00">HTML</text>
</g>
<!-- p&#45;&gt;HTML -->
<g id="edge7" class="edge">
<title>p&#45;&gt;HTML</title>
<path fill="none" stroke="black" d="M495.54,-197.68C511.27,-204.34 529.05,-211.87 544.32,-218.33"/>
<polygon fill="black" stroke="black" points="543.37,-221.73 553.94,-222.41 546.1,-215.29 543.37,-221.73"/>
</g>
<!-- EPUB -->
<g id="node8" class="node">
<title>EPUB</title>
<ellipse fill="none" stroke="black" cx="582.32" cy="-180" rx="33.29" ry="18"/>
<text text-anchor="middle" x="582.32" y="-176.3" font-family="Times,serif" font-size="14.00">EPUB</text>
</g>
<!-- p&#45;&gt;EPUB -->
<g id="edge8" class="edge">
<title>p&#45;&gt;EPUB</title>
<path fill="none" stroke="black" d="M495.54,-180C509.32,-180 524.66,-180 538.52,-180"/>
<polygon fill="black" stroke="black" points="538.77,-183.5 548.77,-180 538.77,-176.5 538.77,-183.5"/>
</g>
<!-- Markdown -->
<g id="node9" class="node">
<title>Markdown</title>
<ellipse fill="none" stroke="black" cx="582.32" cy="-126" rx="50.09" ry="18"/>
<text text-anchor="middle" x="582.32" y="-122.3" font-family="Times,serif" font-size="14.00">Markdown</text>
</g>
<!-- p&#45;&gt;Markdown -->
<g id="edge9" class="edge">
<title>p&#45;&gt;Markdown</title>
<path fill="none" stroke="black" d="M495.54,-162.32C509.71,-156.32 525.53,-149.62 539.68,-143.63"/>
<polygon fill="black" stroke="black" points="541.34,-146.73 549.18,-139.61 538.61,-140.28 541.34,-146.73"/>
</g>
<!-- AsciiDoc -->
<g id="node10" class="node">
<title>AsciiDoc</title>
<ellipse fill="none" stroke="black" cx="582.32" cy="-72" rx="44.39" ry="18"/>
<text text-anchor="middle" x="582.32" y="-68.3" font-family="Times,serif" font-size="14.00">AsciiDoc</text>
</g>
<!-- p&#45;&gt;AsciiDoc -->
<g id="edge10" class="edge">
<title>p&#45;&gt;AsciiDoc</title>
<path fill="none" stroke="black" d="M468.67,-161.73C483.55,-144.23 507.69,-117.78 532.28,-99 536.09,-96.09 540.24,-93.3 544.48,-90.7"/>
<polygon fill="black" stroke="black" points="546.31,-93.68 553.19,-85.62 542.78,-87.63 546.31,-93.68"/>
</g>
<!-- etc -->
<g id="node11" class="node">
<title>etc</title>
<polygon fill="none" stroke="black" points="609.32,-10.54 609.32,-25.46 593.51,-36 571.14,-36 555.32,-25.46 555.32,-10.54 571.14,0 593.51,0 609.32,-10.54"/>
<text text-anchor="middle" x="582.32" y="-14.3" font-family="Times,serif" font-size="14.00">etc.</text>
</g>
<!-- p&#45;&gt;etc -->
<g id="edge11" class="edge">
<title>p&#45;&gt;etc</title>
<path fill="none" stroke="black" d="M460.63,-161.79C471.92,-133.76 496.79,-79.67 532.28,-45 537.23,-40.16 543.22,-35.93 549.29,-32.33"/>
<polygon fill="black" stroke="black" points="551.02,-35.38 558.13,-27.53 547.67,-29.23 551.02,-35.38"/>
</g>
<!-- IDML -->
<g id="node2" class="node">
<title>IDML</title>
<ellipse fill="none" stroke="black" cx="33.8" cy="-180" rx="33.6" ry="18"/>
<text text-anchor="middle" x="33.8" y="-176.3" font-family="Times,serif" font-size="14.00">IDML</text>
</g>
<!-- HubXML -->
<g id="node3" class="node">
<title>HubXML</title>
<ellipse fill="none" stroke="black" cx="150.74" cy="-248" rx="46.29" ry="18"/>
<text text-anchor="middle" x="150.74" y="-244.3" font-family="Times,serif" font-size="14.00">HubXML</text>
</g>
<!-- IDML&#45;&gt;HubXML -->
<g id="edge1" class="edge">
<title>IDML&#45;&gt;HubXML</title>
<path fill="none" stroke="black" stroke-dasharray="1,5" d="M56.96,-193.11C73.63,-202.97 96.77,-216.66 115.77,-227.9"/>
<polygon fill="black" stroke="black" points="114.06,-230.96 124.44,-233.04 117.62,-224.93 114.06,-230.96"/>
<text text-anchor="middle" x="64.79" y="-216.73" font-family="Times,serif" font-size="13.00">idml2xml</text>
</g>
<!-- DocBook -->
<g id="node4" class="node">
<title>DocBook</title>
<ellipse fill="none" stroke="black" cx="278.08" cy="-180" rx="44.39" ry="18"/>
<text text-anchor="middle" x="278.08" y="-176.3" font-family="Times,serif" font-size="14.00">DocBook</text>
</g>
<!-- IDML&#45;&gt;DocBook -->
<g id="edge3" class="edge">
<title>IDML&#45;&gt;DocBook</title>
<path fill="none" stroke="black" d="M67.46,-178.31C79.17,-177.78 92.47,-177.26 104.59,-177 145.6,-176.12 155.87,-176.23 196.89,-177 205.59,-177.16 214.82,-177.42 223.81,-177.73"/>
<polygon fill="black" stroke="black" points="223.69,-181.23 233.81,-178.08 223.94,-174.23 223.69,-181.23"/>
<text text-anchor="middle" x="150.74" y="-180.6" font-family="Times,serif" font-size="13.00">idml2docbook</text>
</g>
<!-- HubXML&#45;&gt;DocBook -->
<g id="edge2" class="edge">
<title>HubXML&#45;&gt;DocBook</title>
<path fill="none" stroke="black" stroke-dasharray="1,5" d="M178.63,-233.41C197.09,-223.4 221.79,-210 241.83,-199.13"/>
<polygon fill="black" stroke="black" points="243.55,-202.18 250.67,-194.33 240.21,-196.02 243.55,-202.18"/>
<text text-anchor="middle" x="261.8" y="-217.39" font-family="Times,serif" font-size="13.00">hubxml2docbook</text>
</g>
<!-- DocBook&#45;&gt;p -->
<g id="edge4" class="edge">
<title>DocBook&#45;&gt;p</title>
<path fill="none" stroke="black" d="M322.66,-180C346.09,-180 375.15,-180 399.75,-180"/>
<polygon fill="black" stroke="black" points="400,-183.5 410,-180 400,-176.5 400,-183.5"/>
<text text-anchor="middle" x="366.28" y="-211.6" font-family="Times,serif" font-size="13.00">Pandoc</text>
<text text-anchor="middle" x="366.28" y="-197.6" font-family="Times,serif" font-size="13.00">DocBook</text>
<text text-anchor="middle" x="366.28" y="-183.6" font-family="Times,serif" font-size="13.00">reader</text>
</g>
</g>
</svg>
