<?xml version="1.0" encoding="UTF-8" standalone="no"?>
<!DOCTYPE svg PUBLIC "-//W3C//DTD SVG 1.1//EN"
 "http://www.w3.org/Graphics/SVG/1.1/DTD/svg11.dtd">
<!-- Generated by graphviz version 2.43.0 (0)
 -->
<!-- Title: simplified_conversions Pages: 1 -->
<svg width="452pt" height="188pt"
 viewBox="0.00 0.00 451.60 188.00" xmlns="http://www.w3.org/2000/svg" xmlns:xlink="http://www.w3.org/1999/xlink">
<g id="graph0" class="graph" transform="scale(1 1) rotate(0) translate(4 184)">
<title>simplified_conversions</title>
<!-- p -->
<g id="node1" class="node">
<title>p</title>
<polygon fill="none" stroke="black" points="243.6,-108 187.6,-108 187.6,-72 243.6,-72 243.6,-108"/>
<text text-anchor="middle" x="215.6" y="-86.3" font-family="Times,serif" font-size="14.00">Pandoc</text>
</g>
<!-- ODT -->
<g id="node3" class="node">
<title>ODT</title>
<ellipse fill="none" stroke="black" cx="28.6" cy="-18" rx="28.7" ry="18"/>
<text text-anchor="middle" x="28.6" y="-14.3" font-family="Times,serif" font-size="14.00">ODT</text>
</g>
<!-- p&#45;&gt;ODT -->
<g id="edge2" class="edge">
<title>p&#45;&gt;ODT</title>
<path fill="none" stroke="black" d="M187.34,-79.69C157.19,-69.58 108.14,-52.65 66.6,-36 64.53,-35.17 62.4,-34.29 60.27,-33.39"/>
<polygon fill="black" stroke="black" points="61.54,-30.13 50.98,-29.36 58.76,-36.55 61.54,-30.13"/>
</g>
<!-- HTML -->
<g id="node4" class="node">
<title>HTML</title>
<ellipse fill="none" stroke="black" cx="111.6" cy="-18" rx="36.29" ry="18"/>
<text text-anchor="middle" x="111.6" y="-14.3" font-family="Times,serif" font-size="14.00">HTML</text>
</g>
<!-- p&#45;&gt;HTML -->
<g id="edge3" class="edge">
<title>p&#45;&gt;HTML</title>
<path fill="none" stroke="black" d="M190.16,-71.88C175.28,-61.86 156.43,-49.18 140.93,-38.74"/>
<polygon fill="black" stroke="black" points="142.49,-35.58 132.24,-32.9 138.58,-41.38 142.49,-35.58"/>
</g>
<!-- Markdown -->
<g id="node5" class="node">
<title>Markdown</title>
<ellipse fill="none" stroke="black" cx="215.6" cy="-18" rx="50.09" ry="18"/>
<text text-anchor="middle" x="215.6" y="-14.3" font-family="Times,serif" font-size="14.00">Markdown</text>
</g>
<!-- p&#45;&gt;Markdown -->
<g id="edge4" class="edge">
<title>p&#45;&gt;Markdown</title>
<path fill="none" stroke="black" d="M215.6,-71.7C215.6,-63.98 215.6,-54.71 215.6,-46.11"/>
<polygon fill="black" stroke="black" points="219.1,-46.1 215.6,-36.1 212.1,-46.1 219.1,-46.1"/>
</g>
<!-- AsciiDoc -->
<g id="node6" class="node">
<title>AsciiDoc</title>
<ellipse fill="none" stroke="black" cx="327.6" cy="-18" rx="44.39" ry="18"/>
<text text-anchor="middle" x="327.6" y="-14.3" font-family="Times,serif" font-size="14.00">AsciiDoc</text>
</g>
<!-- p&#45;&gt;AsciiDoc -->
<g id="edge5" class="edge">
<title>p&#45;&gt;AsciiDoc</title>
<path fill="none" stroke="black" d="M243,-71.88C258.84,-61.97 278.86,-49.46 295.45,-39.09"/>
<polygon fill="black" stroke="black" points="297.64,-41.85 304.27,-33.58 293.93,-35.91 297.64,-41.85"/>
</g>
<!-- etc. -->
<g id="node7" class="node">
<title>etc.</title>
<ellipse fill="none" stroke="black" cx="416.6" cy="-18" rx="27" ry="18"/>
<text text-anchor="middle" x="416.6" y="-14.3" font-family="Times,serif" font-size="14.00">etc.</text>
</g>
<!-- p&#45;&gt;etc. -->
<g id="edge6" class="edge">
<title>p&#45;&gt;etc.</title>
<path fill="none" stroke="black" d="M243.72,-81.18C276.88,-71.69 333.44,-54.62 380.6,-36 382.43,-35.28 384.3,-34.5 386.18,-33.7"/>
<polygon fill="black" stroke="black" points="387.78,-36.82 395.48,-29.53 384.92,-30.43 387.78,-36.82"/>
</g>
<!-- IDML -->
<g id="node2" class="node">
<title>IDML</title>
<ellipse fill="none" stroke="black" cx="215.6" cy="-162" rx="33.6" ry="18"/>
<text text-anchor="middle" x="215.6" y="-158.3" font-family="Times,serif" font-size="14.00">IDML</text>
</g>
<!-- IDML&#45;&gt;p -->
<g id="edge1" class="edge">
<title>IDML&#45;&gt;p</title>
<path fill="none" stroke="black" d="M215.6,-143.7C215.6,-135.98 215.6,-126.71 215.6,-118.11"/>
<polygon fill="black" stroke="black" points="219.1,-118.1 215.6,-108.1 212.1,-118.1 219.1,-118.1"/>
</g>
</g>
</svg>
