<?xml version="1.0" encoding="UTF-8" standalone="no"?>
<!DOCTYPE svg PUBLIC "-//W3C//DTD SVG 1.1//EN"
 "http://www.w3.org/Graphics/SVG/1.1/DTD/svg11.dtd">
<!-- Generated by graphviz version 2.43.0 (0)
 -->
<!-- Title: conversions Pages: 1 -->
<svg width="640pt" height="314pt"
 viewBox="0.00 0.00 640.37 314.00" xmlns="http://www.w3.org/2000/svg" xmlns:xlink="http://www.w3.org/1999/xlink">
<g id="graph0" class="graph" transform="scale(1 1) rotate(0) translate(4 310)">
<title>conversions</title>
<!-- p -->
<g id="node1" class="node">
<title>p</title>
<polygon fill="none" stroke="black" points="495.28,-171 410.28,-171 410.28,-135 495.28,-135 495.28,-171"/>
<text text-anchor="middle" x="452.78" y="-149.3" font-family="Times,serif" font-size="14.00">Pandoc AST</text>
</g>
<!-- DOCX -->
<g id="node5" class="node">
<title>DOCX</title>
<ellipse fill="none" stroke="black" cx="582.32" cy="-288" rx="36" ry="18"/>
<text text-anchor="middle" x="582.32" y="-284.3" font-family="Times,serif" font-size="14.00">DOCX</text>
</g>
<!-- p&#45;&gt;DOCX -->
<g id="edge5" class="edge">
<title>p&#45;&gt;DOCX</title>
<path fill="none" stroke="black" d="M463.7,-171.33C476.93,-194.48 502.2,-234.48 532.28,-261 536.47,-264.7 541.25,-268.1 546.15,-271.14"/>
<polygon fill="black" stroke="black" points="544.57,-274.27 554.99,-276.24 548.07,-268.21 544.57,-274.27"/>
<text text-anchor="middle" x="456.15" y="-218.95" font-family="Times,serif" font-size="13.00">Pandoc writers &#160;&#160;&#160;</text>
<text text-anchor="middle" x="456.15" y="-204.95" font-family="Times,serif" font-size="13.00"> + Lua &#160;&#160;&#160;</text>
</g>
<!-- ODT -->
<g id="node6" class="node">
<title>ODT</title>
<ellipse fill="none" stroke="black" cx="582.32" cy="-234" rx="28.7" ry="18"/>
<text text-anchor="middle" x="582.32" y="-230.3" font-family="Times,serif" font-size="14.00">ODT</text>
</g>
<!-- p&#45;&gt;ODT -->
<g id="edge6" class="edge">
<title>p&#45;&gt;ODT</title>
<path fill="none" stroke="black" d="M478.81,-171.16C494.02,-181.96 513.98,-195.71 532.28,-207 538.17,-210.64 544.58,-214.34 550.76,-217.79"/>
<polygon fill="black" stroke="black" points="549.12,-220.88 559.57,-222.63 552.49,-214.75 549.12,-220.88"/>
</g>
<!-- HTML -->
<g id="node7" class="node">
<title>HTML</title>
<ellipse fill="none" stroke="black" cx="582.32" cy="-180" rx="36.29" ry="18"/>
<text text-anchor="middle" x="582.32" y="-176.3" font-family="Times,serif" font-size="14.00">HTML</text>
</g>
<!-- p&#45;&gt;HTML -->
<g id="edge7" class="edge">
<title>p&#45;&gt;HTML</title>
<path fill="none" stroke="black" d="M495.54,-161.84C509.34,-164.76 524.7,-168.01 538.57,-170.95"/>
<polygon fill="black" stroke="black" points="537.86,-174.38 548.36,-173.02 539.31,-167.53 537.86,-174.38"/>
</g>
<!-- Markdown -->
<g id="node8" class="node">
<title>Markdown</title>
<ellipse fill="none" stroke="black" cx="582.32" cy="-126" rx="50.09" ry="18"/>
<text text-anchor="middle" x="582.32" y="-122.3" font-family="Times,serif" font-size="14.00">Markdown</text>
</g>
<!-- p&#45;&gt;Markdown -->
<g id="edge8" class="edge">
<title>p&#45;&gt;Markdown</title>
<path fill="none" stroke="black" d="M495.54,-144.16C506.11,-141.92 517.6,-139.49 528.63,-137.15"/>
<polygon fill="black" stroke="black" points="529.53,-140.54 538.59,-135.05 528.08,-133.69 529.53,-140.54"/>
</g>
<!-- AsciiDoc -->
<g id="node9" class="node">
<title>AsciiDoc</title>
<ellipse fill="none" stroke="black" cx="582.32" cy="-72" rx="44.39" ry="18"/>
<text text-anchor="middle" x="582.32" y="-68.3" font-family="Times,serif" font-size="14.00">AsciiDoc</text>
</g>
<!-- p&#45;&gt;AsciiDoc -->
<g id="edge9" class="edge">
<title>p&#45;&gt;AsciiDoc</title>
<path fill="none" stroke="black" d="M478.81,-134.84C494.02,-124.04 513.98,-110.29 532.28,-99 536.61,-96.32 541.23,-93.61 545.83,-90.99"/>
<polygon fill="black" stroke="black" points="547.56,-94.04 554.57,-86.1 544.14,-87.93 547.56,-94.04"/>
</g>
<!-- etc. -->
<g id="node10" class="node">
<title>etc.</title>
<ellipse fill="none" stroke="black" cx="582.32" cy="-18" rx="27" ry="18"/>
<text text-anchor="middle" x="582.32" y="-14.3" font-family="Times,serif" font-size="14.00">etc.</text>
</g>
<!-- p&#45;&gt;etc. -->
<g id="edge10" class="edge">
<title>p&#45;&gt;etc.</title>
<path fill="none" stroke="black" d="M463.7,-134.67C476.93,-111.52 502.2,-71.52 532.28,-45 537.57,-40.33 543.8,-36.15 550.01,-32.54"/>
<polygon fill="black" stroke="black" points="551.86,-35.51 558.99,-27.68 548.53,-29.36 551.86,-35.51"/>
</g>
<!-- IDML -->
<g id="node2" class="node">
<title>IDML</title>
<ellipse fill="none" stroke="black" cx="33.8" cy="-153" rx="33.6" ry="18"/>
<text text-anchor="middle" x="33.8" y="-149.3" font-family="Times,serif" font-size="14.00">IDML</text>
</g>
<!-- HubXML -->
<g id="node3" class="node">
<title>HubXML</title>
<ellipse fill="none" stroke="black" cx="150.74" cy="-221" rx="46.29" ry="18"/>
<text text-anchor="middle" x="150.74" y="-217.3" font-family="Times,serif" font-size="14.00">HubXML</text>
</g>
<!-- IDML&#45;&gt;HubXML -->
<g id="edge1" class="edge">
<title>IDML&#45;&gt;HubXML</title>
<path fill="none" stroke="black" stroke-dasharray="1,5" d="M56.96,-166.11C73.63,-175.97 96.77,-189.66 115.77,-200.9"/>
<polygon fill="black" stroke="black" points="114.06,-203.96 124.44,-206.04 117.62,-197.93 114.06,-203.96"/>
<text text-anchor="middle" x="64.79" y="-189.73" font-family="Times,serif" font-size="13.00">idml2xml</text>
</g>
<!-- DocBook -->
<g id="node4" class="node">
<title>DocBook</title>
<ellipse fill="none" stroke="black" cx="278.08" cy="-153" rx="44.39" ry="18"/>
<text text-anchor="middle" x="278.08" y="-149.3" font-family="Times,serif" font-size="14.00">DocBook</text>
</g>
<!-- IDML&#45;&gt;DocBook -->
<g id="edge3" class="edge">
<title>IDML&#45;&gt;DocBook</title>
<path fill="none" stroke="black" d="M67.46,-151.31C79.17,-150.78 92.47,-150.26 104.59,-150 145.6,-149.12 155.87,-149.23 196.89,-150 205.59,-150.16 214.82,-150.42 223.81,-150.73"/>
<polygon fill="black" stroke="black" points="223.69,-154.23 233.81,-151.08 223.94,-147.23 223.69,-154.23"/>
<text text-anchor="middle" x="150.74" y="-153.6" font-family="Times,serif" font-size="13.00">idml2docbook</text>
</g>
<!-- HubXML&#45;&gt;DocBook -->
<g id="edge2" class="edge">
<title>HubXML&#45;&gt;DocBook</title>
<path fill="none" stroke="black" stroke-dasharray="1,5" d="M178.63,-206.41C197.09,-196.4 221.79,-183 241.83,-172.13"/>
<polygon fill="black" stroke="black" points="243.55,-175.18 250.67,-167.33 240.21,-169.02 243.55,-175.18"/>
<text text-anchor="middle" x="261.8" y="-190.39" font-family="Times,serif" font-size="13.00">hubxml2docbook</text>
</g>
<!-- DocBook&#45;&gt;p -->
<g id="edge4" class="edge">
<title>DocBook&#45;&gt;p</title>
<path fill="none" stroke="black" d="M322.66,-153C346.09,-153 375.15,-153 399.75,-153"/>
<polygon fill="black" stroke="black" points="400,-156.5 410,-153 400,-149.5 400,-156.5"/>
<text text-anchor="middle" x="366.28" y="-184.6" font-family="Times,serif" font-size="13.00">Pandoc</text>
<text text-anchor="middle" x="366.28" y="-170.6" font-family="Times,serif" font-size="13.00">DocBook</text>
<text text-anchor="middle" x="366.28" y="-156.6" font-family="Times,serif" font-size="13.00">reader</text>
</g>
</g>
</svg>
