<?xml version="1.0" encoding="UTF-8" standalone="no"?>
<!DOCTYPE svg PUBLIC "-//W3C//DTD SVG 1.1//EN"
 "http://www.w3.org/Graphics/SVG/1.1/DTD/svg11.dtd">
<!-- Generated by graphviz version 2.43.0 (0)
 -->
<!-- Title: conversions Pages: 1 -->
<svg width="644pt" height="368pt"
 viewBox="0.00 0.00 644.27 368.00" xmlns="http://www.w3.org/2000/svg" xmlns:xlink="http://www.w3.org/1999/xlink">
<g id="graph0" class="graph" transform="scale(1 1) rotate(0) translate(4 364)">
<title>conversions</title>
<!-- p -->
<g id="node1" class="node">
<title>p</title>
<polygon fill="none" stroke="black" points="499.18,-198 414.18,-198 414.18,-162 499.18,-162 499.18,-198"/>
<text text-anchor="middle" x="456.68" y="-176.3" font-family="Times,serif" font-size="14.00">Pandoc AST</text>
</g>
<!-- DOCX -->
<g id="node5" class="node">
<title>DOCX</title>
<ellipse fill="none" stroke="black" cx="586.22" cy="-342" rx="36" ry="18"/>
<text text-anchor="middle" x="586.22" y="-338.3" font-family="Times,serif" font-size="14.00">DOCX</text>
</g>
<!-- p&#45;&gt;DOCX -->
<g id="edge5" class="edge">
<title>p&#45;&gt;DOCX</title>
<path fill="none" stroke="black" d="M464.53,-198.21C475.82,-226.24 500.69,-280.33 536.18,-315 540.13,-318.86 544.75,-322.34 549.54,-325.42"/>
<polygon fill="black" stroke="black" points="547.85,-328.48 558.25,-330.51 551.39,-322.44 547.85,-328.48"/>
<text text-anchor="middle" x="454.71" y="-260.31" font-family="Times,serif" font-size="13.00">Pandoc writers &#160;&#160;&#160;</text>
<text text-anchor="middle" x="454.71" y="-246.31" font-family="Times,serif" font-size="13.00"> + Lua &#160;&#160;&#160;</text>
</g>
<!-- ODT -->
<g id="node6" class="node">
<title>ODT</title>
<ellipse fill="none" stroke="black" cx="586.22" cy="-288" rx="28.7" ry="18"/>
<text text-anchor="middle" x="586.22" y="-284.3" font-family="Times,serif" font-size="14.00">ODT</text>
</g>
<!-- p&#45;&gt;ODT -->
<g id="edge6" class="edge">
<title>p&#45;&gt;ODT</title>
<path fill="none" stroke="black" d="M472.57,-198.27C487.45,-215.77 511.59,-242.22 536.18,-261 541.68,-265.2 547.92,-269.15 554.05,-272.67"/>
<polygon fill="black" stroke="black" points="552.42,-275.77 562.87,-277.49 555.78,-269.63 552.42,-275.77"/>
</g>
<!-- HTML -->
<g id="node7" class="node">
<title>HTML</title>
<ellipse fill="none" stroke="black" cx="586.22" cy="-234" rx="36.29" ry="18"/>
<text text-anchor="middle" x="586.22" y="-230.3" font-family="Times,serif" font-size="14.00">HTML</text>
</g>
<!-- p&#45;&gt;HTML -->
<g id="edge7" class="edge">
<title>p&#45;&gt;HTML</title>
<path fill="none" stroke="black" d="M499.44,-197.68C515.17,-204.34 532.95,-211.87 548.22,-218.33"/>
<polygon fill="black" stroke="black" points="547.27,-221.73 557.84,-222.41 550,-215.29 547.27,-221.73"/>
</g>
<!-- EPUB -->
<g id="node8" class="node">
<title>EPUB</title>
<ellipse fill="none" stroke="black" cx="586.22" cy="-180" rx="33.29" ry="18"/>
<text text-anchor="middle" x="586.22" y="-176.3" font-family="Times,serif" font-size="14.00">EPUB</text>
</g>
<!-- p&#45;&gt;EPUB -->
<g id="edge8" class="edge">
<title>p&#45;&gt;EPUB</title>
<path fill="none" stroke="black" d="M499.44,-180C513.22,-180 528.56,-180 542.42,-180"/>
<polygon fill="black" stroke="black" points="542.67,-183.5 552.67,-180 542.67,-176.5 542.67,-183.5"/>
</g>
<!-- Markdown -->
<g id="node9" class="node">
<title>Markdown</title>
<ellipse fill="none" stroke="black" cx="586.22" cy="-126" rx="50.09" ry="18"/>
<text text-anchor="middle" x="586.22" y="-122.3" font-family="Times,serif" font-size="14.00">Markdown</text>
</g>
<!-- p&#45;&gt;Markdown -->
<g id="edge9" class="edge">
<title>p&#45;&gt;Markdown</title>
<path fill="none" stroke="black" d="M499.44,-162.32C513.61,-156.32 529.43,-149.62 543.58,-143.63"/>
<polygon fill="black" stroke="black" points="545.24,-146.73 553.08,-139.61 542.51,-140.28 545.24,-146.73"/>
</g>
<!-- AsciiDoc -->
<g id="node10" class="node">
<title>AsciiDoc</title>
<ellipse fill="none" stroke="black" cx="586.22" cy="-72" rx="44.39" ry="18"/>
<text text-anchor="middle" x="586.22" y="-68.3" font-family="Times,serif" font-size="14.00">AsciiDoc</text>
</g>
<!-- p&#45;&gt;AsciiDoc -->
<g id="edge10" class="edge">
<title>p&#45;&gt;AsciiDoc</title>
<path fill="none" stroke="black" d="M472.57,-161.73C487.45,-144.23 511.59,-117.78 536.18,-99 539.98,-96.09 544.14,-93.3 548.38,-90.7"/>
<polygon fill="black" stroke="black" points="550.21,-93.68 557.09,-85.62 546.68,-87.63 550.21,-93.68"/>
</g>
<!-- etc -->
<g id="node11" class="node">
<title>etc</title>
<polygon fill="none" stroke="black" points="613.22,-10.54 613.22,-25.46 597.41,-36 575.04,-36 559.22,-25.46 559.22,-10.54 575.04,0 597.41,0 613.22,-10.54"/>
<text text-anchor="middle" x="586.22" y="-14.3" font-family="Times,serif" font-size="14.00">etc.</text>
</g>
<!-- p&#45;&gt;etc -->
<g id="edge11" class="edge">
<title>p&#45;&gt;etc</title>
<path fill="none" stroke="black" d="M464.53,-161.79C475.82,-133.76 500.69,-79.67 536.18,-45 541.13,-40.16 547.12,-35.93 553.19,-32.33"/>
<polygon fill="black" stroke="black" points="554.92,-35.38 562.03,-27.53 551.57,-29.23 554.92,-35.38"/>
</g>
<!-- IDML -->
<g id="node2" class="node">
<title>IDML</title>
<ellipse fill="none" stroke="black" cx="33.8" cy="-180" rx="33.6" ry="18"/>
<text text-anchor="middle" x="33.8" y="-176.3" font-family="Times,serif" font-size="14.00">IDML</text>
</g>
<!-- Hub XML -->
<g id="node3" class="node">
<title>Hub XML</title>
<ellipse fill="none" stroke="black" cx="152.69" cy="-248" rx="48.19" ry="18"/>
<text text-anchor="middle" x="152.69" y="-244.3" font-family="Times,serif" font-size="14.00">Hub XML</text>
</g>
<!-- IDML&#45;&gt;Hub XML -->
<g id="edge1" class="edge">
<title>IDML:e&#45;&gt;Hub XML:sw</title>
<path fill="none" stroke="black" stroke-dasharray="1,5" d="M67.59,-180C90.23,-180 85.96,-202.15 104.59,-215 117.23,-223.71 123.18,-221.12 135.69,-230 136.2,-230.36 136.25,-230.56 136.69,-231"/>
<text text-anchor="middle" x="78.61" y="-218.61" font-family="Times,serif" font-size="13.00">idml2xml</text>
</g>
<!-- DocBook -->
<g id="node4" class="node">
<title>DocBook</title>
<ellipse fill="none" stroke="black" cx="281.98" cy="-180" rx="44.39" ry="18"/>
<text text-anchor="middle" x="281.98" y="-176.3" font-family="Times,serif" font-size="14.00">DocBook</text>
</g>
<!-- IDML&#45;&gt;DocBook -->
<g id="edge3" class="edge">
<title>IDML&#45;&gt;DocBook</title>
<path fill="none" stroke="black" d="M67.46,-178.31C79.17,-177.78 92.47,-177.26 104.59,-177 147.34,-176.08 158.04,-176.2 200.79,-177 209.49,-177.16 218.72,-177.42 227.71,-177.73"/>
<polygon fill="black" stroke="black" points="227.59,-181.23 237.7,-178.08 227.84,-174.23 227.59,-181.23"/>
<text text-anchor="middle" x="152.69" y="-180.6" font-family="Times,serif" font-size="13.00">idml2docbook</text>
</g>
<!-- Hub XML&#45;&gt;DocBook -->
<g id="edge2" class="edge">
<title>Hub XML:se&#45;&gt;DocBook:w</title>
<path fill="none" stroke="black" stroke-dasharray="1,5" d="M170.69,-231C181.26,-220.43 188.6,-224.65 200.79,-216 219.5,-202.72 214.84,-180 237.79,-180"/>
<text text-anchor="middle" x="255.33" y="-212.44" font-family="Times,serif" font-size="13.00">hubxml2docbook</text>
</g>
<!-- DocBook&#45;&gt;p -->
<g id="edge4" class="edge">
<title>DocBook&#45;&gt;p</title>
<path fill="none" stroke="black" d="M326.56,-180C349.99,-180 379.04,-180 403.65,-180"/>
<polygon fill="black" stroke="black" points="403.9,-183.5 413.9,-180 403.9,-176.5 403.9,-183.5"/>
<text text-anchor="middle" x="370.18" y="-211.6" font-family="Times,serif" font-size="13.00">Pandoc</text>
<text text-anchor="middle" x="370.18" y="-197.6" font-family="Times,serif" font-size="13.00">DocBook</text>
<text text-anchor="middle" x="370.18" y="-183.6" font-family="Times,serif" font-size="13.00">reader</text>
</g>
</g>
</svg>
