<?xml version="1.0" encoding="UTF-8" standalone="no"?>
<!DOCTYPE svg PUBLIC "-//W3C//DTD SVG 1.1//EN"
 "http://www.w3.org/Graphics/SVG/1.1/DTD/svg11.dtd">
<!-- Generated by graphviz version 2.43.0 (0)
 -->
<!-- Title: simplified_conversions Pages: 1 -->
<svg width="625pt" height="188pt"
 viewBox="0.00 0.00 624.60 188.00" xmlns="http://www.w3.org/2000/svg" xmlns:xlink="http://www.w3.org/1999/xlink">
<g id="graph0" class="graph" transform="scale(1 1) rotate(0) translate(4 184)">
<title>simplified_conversions</title>
<!-- p -->
<g id="node1" class="node">
<title>p</title>
<polygon fill="none" stroke="black" points="332.6,-108 276.6,-108 276.6,-72 332.6,-72 332.6,-108"/>
<text text-anchor="middle" x="304.6" y="-86.3" font-family="Times,serif" font-size="14.00">Pandoc</text>
</g>
<!-- ODT -->
<g id="node3" class="node">
<title>ODT</title>
<ellipse fill="none" stroke="black" cx="28.6" cy="-18" rx="28.7" ry="18"/>
<text text-anchor="middle" x="28.6" y="-14.3" font-family="Times,serif" font-size="14.00">ODT</text>
</g>
<!-- p&#45;&gt;ODT -->
<g id="edge2" class="edge">
<title>p&#45;&gt;ODT</title>
<path fill="none" stroke="black" d="M276.47,-84.76C231.25,-77.49 139.92,-61 65.6,-36 63.69,-35.36 61.74,-34.65 59.8,-33.89"/>
<polygon fill="black" stroke="black" points="60.77,-30.51 50.2,-29.85 58.06,-36.96 60.77,-30.51"/>
</g>
<!-- DOCX -->
<g id="node4" class="node">
<title>DOCX</title>
<ellipse fill="none" stroke="black" cx="110.6" cy="-18" rx="36" ry="18"/>
<text text-anchor="middle" x="110.6" y="-14.3" font-family="Times,serif" font-size="14.00">DOCX</text>
</g>
<!-- p&#45;&gt;DOCX -->
<g id="edge3" class="edge">
<title>p&#45;&gt;DOCX</title>
<path fill="none" stroke="black" d="M276.53,-79.2C246.53,-68.68 197.61,-51.41 155.6,-36 153.04,-35.06 150.4,-34.09 147.75,-33.1"/>
<polygon fill="black" stroke="black" points="148.76,-29.74 138.17,-29.51 146.31,-36.3 148.76,-29.74"/>
</g>
<!-- HTML -->
<g id="node5" class="node">
<title>HTML</title>
<ellipse fill="none" stroke="black" cx="200.6" cy="-18" rx="36.29" ry="18"/>
<text text-anchor="middle" x="200.6" y="-14.3" font-family="Times,serif" font-size="14.00">HTML</text>
</g>
<!-- p&#45;&gt;HTML -->
<g id="edge4" class="edge">
<title>p&#45;&gt;HTML</title>
<path fill="none" stroke="black" d="M279.16,-71.88C264.28,-61.86 245.43,-49.18 229.93,-38.74"/>
<polygon fill="black" stroke="black" points="231.49,-35.58 221.24,-32.9 227.58,-41.38 231.49,-35.58"/>
</g>
<!-- Markdown -->
<g id="node6" class="node">
<title>Markdown</title>
<ellipse fill="none" stroke="black" cx="304.6" cy="-18" rx="50.09" ry="18"/>
<text text-anchor="middle" x="304.6" y="-14.3" font-family="Times,serif" font-size="14.00">Markdown</text>
</g>
<!-- p&#45;&gt;Markdown -->
<g id="edge5" class="edge">
<title>p&#45;&gt;Markdown</title>
<path fill="none" stroke="black" d="M304.6,-71.7C304.6,-63.98 304.6,-54.71 304.6,-46.11"/>
<polygon fill="black" stroke="black" points="308.1,-46.1 304.6,-36.1 301.1,-46.1 308.1,-46.1"/>
</g>
<!-- AsciiDoc -->
<g id="node7" class="node">
<title>AsciiDoc</title>
<ellipse fill="none" stroke="black" cx="416.6" cy="-18" rx="44.39" ry="18"/>
<text text-anchor="middle" x="416.6" y="-14.3" font-family="Times,serif" font-size="14.00">AsciiDoc</text>
</g>
<!-- p&#45;&gt;AsciiDoc -->
<g id="edge6" class="edge">
<title>p&#45;&gt;AsciiDoc</title>
<path fill="none" stroke="black" d="M332,-71.88C347.84,-61.97 367.86,-49.46 384.45,-39.09"/>
<polygon fill="black" stroke="black" points="386.64,-41.85 393.27,-33.58 382.93,-35.91 386.64,-41.85"/>
</g>
<!-- EPUB -->
<g id="node8" class="node">
<title>EPUB</title>
<ellipse fill="none" stroke="black" cx="511.6" cy="-18" rx="33.29" ry="18"/>
<text text-anchor="middle" x="511.6" y="-14.3" font-family="Times,serif" font-size="14.00">EPUB</text>
</g>
<!-- p&#45;&gt;EPUB -->
<g id="edge7" class="edge">
<title>p&#45;&gt;EPUB</title>
<path fill="none" stroke="black" d="M332.84,-80.62C365.87,-70.67 422.08,-53.22 469.6,-36 471.84,-35.19 474.15,-34.33 476.47,-33.44"/>
<polygon fill="black" stroke="black" points="477.91,-36.63 485.95,-29.73 475.36,-30.12 477.91,-36.63"/>
</g>
<!-- etc -->
<g id="node9" class="node">
<title>etc</title>
<polygon fill="none" stroke="black" points="616.6,-10.54 616.6,-25.46 600.78,-36 578.41,-36 562.6,-25.46 562.6,-10.54 578.41,0 600.78,0 616.6,-10.54"/>
<text text-anchor="middle" x="589.6" y="-14.3" font-family="Times,serif" font-size="14.00">etc.</text>
</g>
<!-- p&#45;&gt;etc -->
<g id="edge8" class="edge">
<title>p&#45;&gt;etc</title>
<path fill="none" stroke="black" d="M332.8,-85.17C379.55,-78.35 475.71,-62.28 553.6,-36 555.51,-35.35 557.46,-34.63 559.41,-33.86"/>
<polygon fill="black" stroke="black" points="561.2,-36.9 569,-29.73 558.43,-30.47 561.2,-36.9"/>
</g>
<!-- id -->
<g id="node2" class="node">
<title>id</title>
<polygon fill="none" stroke="black" points="304.6,-180 243.77,-162 304.6,-144 365.43,-162 304.6,-180"/>
<text text-anchor="middle" x="304.6" y="-158.3" font-family="Times,serif" font-size="14.00">InDesign</text>
</g>
<!-- id&#45;&gt;p -->
<g id="edge1" class="edge">
<title>id&#45;&gt;p</title>
<path fill="none" stroke="black" d="M304.6,-143.7C304.6,-135.98 304.6,-126.71 304.6,-118.11"/>
<polygon fill="black" stroke="black" points="308.1,-118.1 304.6,-108.1 301.1,-118.1 308.1,-118.1"/>
</g>
</g>
</svg>
